# xmcd
#
# Track frame offsets: 
#        150
#        20135
#        40480
#        59153
#        78386
#        102176
#        119969
#        136597
#
# Disc length: 2053 seconds
#
# Revision: 0
# Processed by: cddbd v1.5.2PL0 Copyright (c) Steve Scherf et al.
# Submitted via: ExactAudioCopy v1.1
#
DISCID=74080308
DTITLE=David Hudson - To You, Honey, Honey, With Love
DYEAR=1980
DGENRE=R&B
TTITLE0=Honey, Honey
TTITLE1=When I'm Lovin' You
TTITLE2=I Have Never Loved A Woman (The Way I Love You)
TTITLE3=I Must Have Your Love
TTITLE4=Ease Up
TTITLE5=Let Me Wrap You In My Love
TTITLE6=Scratch My Back
TTITLE7=Pump It
EXTD=
EXTT0=
EXTT1=
EXTT2=
EXTT3=
EXTT4=
EXTT5=
EXTT6=
EXTT7=
PLAYORDER=
